<?xml version="1.0" standalone="no"?>
<!DOCTYPE svg PUBLIC "-//W3C//DTD SVG 1.1//EN" "http://www.w3.org/Graphics/SVG/1.1/DTD/svg11.dtd" >
<!--
2013-9-30: Created.
-->
<svg>
<metadata>
Created by iconfont
</metadata>
<defs>

<font id="iconfont" horiz-adv-x="1024" >
  <font-face
    font-family="iconfont"
    font-weight="500"
    font-stretch="normal"
    units-per-em="1024"
    ascent="896"
    descent="-128"
  />
    <missing-glyph />
    
    <glyph glyph-name="github" unicode="&#59145;" d="M512 883.36c-282.752 0-512-229.216-512-512 0-226.208 146.72-418.144 350.144-485.824 25.6-4.736 35.008 11.104 35.008 24.64 0 12.192-0.48 52.544-0.704 95.328-142.464-30.976-172.512 60.416-172.512 60.416-23.296 59.168-56.832 74.912-56.832 74.912-46.464 31.776 3.52 31.136 3.52 31.136 51.392-3.616 78.464-52.768 78.464-52.768 45.664-78.272 119.776-55.648 148.992-42.56 4.576 33.088 17.856 55.68 32.512 68.48-113.728 12.928-233.28 56.864-233.28 253.024 0 55.904 20 101.568 52.768 137.44-5.312 12.896-22.848 64.96 4.96 135.488 0 0 43.008 13.76 140.832-52.48 40.832 11.36 84.64 17.024 128.16 17.248 43.488-0.192 87.328-5.888 128.256-17.248 97.728 66.24 140.64 52.48 140.64 52.48 27.872-70.528 10.336-122.592 5.024-135.488 32.832-35.84 52.704-81.536 52.704-137.44 0-196.64-119.776-239.936-233.792-252.64 18.368-15.904 34.72-47.04 34.72-94.816 0-68.512-0.608-123.648-0.608-140.512 0-13.632 9.216-29.6 35.168-24.576 203.328 67.776 349.856 259.616 349.856 485.76 0 282.784-229.248 512-512 512z"  horiz-adv-x="1024" />

    
    <glyph glyph-name="home" unicode="&#59049;" d="M1015.096 363.965l-122.435 122.435c0 0 0 0 0 0l-362.852 365.078c-8.904 8.904-24.487 8.904-33.391 0l-367.304-365.078c0 0 0 0 0 0l-122.435-122.435c-8.904-8.904-8.904-24.487 0-33.391 8.904-8.904 24.487-8.904 33.391 0l80.139 80.139 0-405.148c0-53.426 44.522-97.948 97.948-97.948h171.409c13.357 0 24.487 11.13 24.487 24.487l-0 244.87h195.896v-242.643c0 0 0 0 0 0s0 0 0 0c0-13.357 11.13-24.487 24.487-24.487h171.409c53.426 0 97.948 44.522 97.948 97.948l-0 402.922 80.139-80.139c4.452-4.452 11.13-6.678 17.809-6.678s13.357 2.226 17.809 6.678c6.678 8.904 6.678 24.487-4.452 33.391zM852.591 274.922c0 0 0 0 0 0v-267.13c0-26.713-22.261-48.974-48.974-48.974h-146.922v242.643c0 0 0 0 0 0s0 0 0 0c0 13.357-11.13 24.487-24.487 24.487l-242.643-0c-13.357 0-24.487-11.13-24.487-24.487v-242.643h-144.696c-26.713 0-48.974 22.261-48.974 48.974v451.896l340.591 340.591 340.591-340.591v-184.765z"  horiz-adv-x="1025" />

    
    <glyph glyph-name="heart" unicode="&#58993;" d="M163.739537 732.260489C252.905721 821.426684 397.472657 821.426684 486.638841 732.260489 507.816822 711.082589 538.469985 685.220154 538.469985 685.220154 561.566443 665.169553 599.125656 665.17728 622.109336 685.220154 622.109336 685.220154 652.762638 711.082589 673.94048 732.260489 763.106664 821.426684 907.673738 821.426684 996.839922 732.260489 1086.006106 643.094294 1086.006106 498.527327 996.839922 409.361133 992.385937 404.907151 579.987511-6.193841 579.987511-6.193841 579.987511-6.193841 164.442361 408.658316 163.739537 409.361133 74.573354 498.527327 74.573354 643.094294 163.739537 732.260489L163.739537 732.260489 163.739537 732.260489ZM618.920545-104.354662C618.920545-104.354662 1059.029656 334.563347 1065.333622 340.867329 1192.328026 467.861608 1192.328026 673.760014 1065.333622 800.754292 938.339356 927.748569 732.441046 927.748569 605.446781 800.754292 575.369686 770.677218 580.108177 772.754382 580.108177 772.754382 580.108177 772.754382 564.038435 791.848468 555.132679 800.754292 428.138413 927.748569 222.239965 927.748569 95.245699 800.754292-31.748566 673.760014-31.748566 467.861608 95.245699 340.867329 96.239256 339.873813 540.501241-104.358476 540.501241-104.358476 562.126461-125.982258 597.296432-125.920221 618.920545-104.354662L618.920545-104.354662ZM989.405405 584.648649C989.405405 684.000196 908.865038 764.540541 809.513514 764.540541 782.764973 764.540541 761.081081 742.856602 761.081081 716.108108 761.081081 689.359615 782.764973 667.675676 809.513514 667.675676 855.368095 667.675676 892.540541 630.50321 892.540541 584.648649 892.540541 557.900155 914.224432 536.216216 940.972973 536.216216 967.721514 536.216216 989.405405 557.900155 989.405405 584.648649L989.405405 584.648649ZM878.702703 425.513514C905.451243 425.513514 927.135135 447.197452 927.135135 473.945946 927.135135 500.694439 905.451243 522.378378 878.702703 522.378378 851.954162 522.378378 830.27027 500.694439 830.27027 473.945946 830.27027 447.197452 851.954162 425.513514 878.702703 425.513514L878.702703 425.513514Z"  horiz-adv-x="1163" />

    
    <glyph glyph-name="message" unicode="&#59120;" d="M192.712-60.371c-5.187 0-10.374 1.38-14.982 4.096-8.303 4.92-13.69 13.557-14.403 23.174l-11.821 157.295c-96.456 76.911-151.507 182.851-151.507 292.53-0.022 226.994 229.732 411.648 512.134 411.648 282.379 0 512.134-184.654 512.134-411.648s-229.732-411.648-512.134-411.648c-46.637 0-92.783 5.009-137.327 14.937l-169.828-77.713c-3.896-1.781-8.103-2.671-12.266-2.671zM512.134 769.402c-249.878 0-453.187-158.208-453.187-352.679 0-96.345 49.263-186.435 138.685-253.663 6.79-5.12 11.041-12.889 11.687-21.37l9.639-128.156 140.466 64.267c5.966 2.783 12.711 3.428 19.167 1.87 43.142-10.374 88.064-15.627 133.587-15.627 249.878 0 453.165 158.208 453.165 352.679-0.022 194.471-203.331 352.679-453.209 352.679z"  horiz-adv-x="1025" />

    
    <glyph glyph-name="wechat" unicode="&#58920;" d="M692.313043 548.730435c11.130435 0 22.26087 0 35.617391-2.226087C696.765217 691.2 540.93913 800.278261 362.852174 800.278261c-198.121739 0-360.626087-135.791304-360.626087-307.2 0-100.173913 53.426087-180.313043 144.695652-242.643478L111.304348 139.130435l126.886957 62.330435c44.521739-8.904348 82.365217-17.808696 126.886957-17.808696 11.130435 0 22.26087 0 33.391304 2.226087-6.678261 24.486957-11.130435 48.973913-11.130435 75.686957C385.113043 419.617391 520.904348 548.730435 692.313043 548.730435L692.313043 548.730435zM498.643478 646.678261c26.713043 0 44.521739-17.808696 44.521739-44.521739 0-26.713043-17.808696-44.521739-44.521739-44.521739-26.713043 0-53.426087 17.808696-53.426087 44.521739C445.217391 628.869565 471.930435 646.678261 498.643478 646.678261L498.643478 646.678261zM244.869565 555.408696c-26.713043 0-53.426087 17.808696-53.426087 44.521739 0 26.713043 26.713043 44.521739 53.426087 44.521739 26.713043 0 44.521739-17.808696 44.521739-44.521739C291.617391 573.217391 273.808696 555.408696 244.869565 555.408696L244.869565 555.408696zM244.869565 555.408696M1021.773913 266.017391c0 144.695652-144.695652 262.678261-307.2 262.678261-171.408696 0-307.2-117.982609-307.2-262.678261 0-144.695652 135.791304-262.678261 307.2-262.678261 35.617391 0 71.234783 8.904348 109.078261 17.808696l97.947826-53.426087-26.713043 91.269565C968.347826 112.417391 1021.773913 185.878261 1021.773913 266.017391L1021.773913 266.017391zM616.626087 312.765217c-17.808696 0-35.617391 17.808696-35.617391 35.617391 0 17.808696 17.808696 35.617391 35.617391 35.617391 26.713043 0 44.521739-17.808696 44.521739-35.617391C661.147826 330.573913 643.33913 312.765217 616.626087 312.765217L616.626087 312.765217zM814.747826 312.765217c-17.808696 0-35.617391 17.808696-35.617391 35.617391 0 17.808696 17.808696 35.617391 35.617391 35.617391 26.713043 0 44.521739-17.808696 44.521739-35.617391C859.269565 330.573913 841.46087 312.765217 814.747826 312.765217L814.747826 312.765217zM814.747826 312.765217"  horiz-adv-x="1024" />

    
    <glyph glyph-name="file" unicode="&#58893;" d="M706.066 423.756h-385.282c-11.817 0-21.406-10.050-21.406-22.441v-11.176c0-12.402 9.589-22.452 21.406-22.452h385.282c11.817 0 21.406 10.061 21.406 22.452v11.176c0.011 12.391-9.589 22.441-21.406 22.441zM504.208 221.538h-184.346c-11.311 0-20.483-10.095-20.483-22.542v-11.344c0-12.436 9.172-22.531 20.483-22.531h184.346c11.311 0 20.483 10.084 20.483 22.531v11.344c0 12.447-9.172 22.542-20.483 22.542zM896.456 896h-766.061c-24.895 0-45.062-20.888-45.062-46.661v-929.722c0-25.761 20.168-46.661 45.062-46.661h545.307c8.306 1.733 23.004 6.798 38.479 21.811l204.615 205.201c0 0 17.759 17.118 22.734 45.603v703.769c-0.011 25.772-20.19 46.661-45.074 46.661zM885.022 106.98c-0.034 0.574-0.113 1.137-0.169 1.699l0.169 0.169v-1.868zM885.022 153.989h-174.96c-40.178 0-50.093-12.076-50.093-50.42v-115.582l-0.023-0.023v-58.939h-493.335c-13.685 0-24.771 11.479-24.771 25.604v859.675c0 14.158 11.086 25.615 24.771 25.615h693.64c13.685 0 24.771-11.457 24.771-25.615v-660.316zM706.066 637.566h-385.282c-11.817 0-21.406-10.084-21.406-22.531v-11.344c0-12.436 9.589-22.531 21.406-22.531h385.282c11.817 0 21.406 10.084 21.406 22.531v11.344c0.011 12.436-9.589 22.531-21.406 22.531z"  horiz-adv-x="1024" />

    
    <glyph glyph-name="ios" unicode="&#58892;" d="M521.996 659.402c13.596 0.316 26.587 2.344 38.944 5.874l1.477-1.023c25.485 8.525 47.394 21.707 65.751 38.675l-25.33-22.506c28.822 15.94 52.712 37.447 70.922 63.249l-36.429-39.535c28.139 24 50.335 54.116 64.645 88.349l-34.464-58.168c22.406 27.513 39.057 60.636 47.571 96.894l-25.474-60.785c14.141 25.287 23.872 54.935 27.305 86.475l-11.137-47.132c6.314 18.235 10.235 39.273 10.832 61.141-0.92-14.951-0.492-7.646-0.492-0.24 0 7.406-0.428 14.711-1.261 21.894-114.436-13.762-202.632-110.063-202.632-226.963 0-1.99 0.026-3.974 0.076-5.952zM813.027 279.983c-9.291 23.371-14.678 50.452-14.678 78.791 0 2.616 0.046 5.222 0.137 7.816 0.877 22.699 5.309 44.464 12.755 64.776 8.765 26.429 27.096 55.391 50.856 78.871 1.828 9.48 42.301 41.542 89.752 59.323-84.33 32.038-144.712 69.372-214.043 76.759 0.404 0.843-15.633 2.529-32.046 2.637l-53.878-0.333-15.629-4.312-11.857-3.773-15.091-5.389-10.779-8.623-17.785-7.006-14.552-5.928-10.24-3.773-12.396-3.773h-7.006c-2.507-0.304-5.41-0.478-8.354-0.478s-5.847 0.174-8.699 0.511c-2.079-0.302-4.891-0.455-7.739-0.455-2.848 0-5.659 0.153-8.427 0.452l-5.585-0.030-11.857 3.234-8.623 3.234-12.396 3.234-20.48 8.084-8.084 2.695-14.552 5.389-9.701 3.234-13.474 4.312h-10.24l-14.013 2.695h-10.779l-12.935 3.773c-35.215-0.199-68.68-7.463-99.123-20.442-100.455-45.409-170.936-147.27-170.936-265.593 0-6.498 0.213-12.947 0.631-19.339l-0.046-53.025c0-4.312 0-19.402 3.773-29.103s0-10.779 3.234-16.168 3.234-17.246 5.389-25.869 3.234-11.318 4.851-16.707 4.312-16.168 7.006-24.253 4.312-11.857 6.467-17.785l8.084-22.636 7.545-17.246c3.234-7.006 5.928-14.552 9.162-21.558l8.084-16.168 10.779-21.019 9.162-15.629 11.318-19.402 21.558-32.337 10.24-13.474 12.396-15.629 10.779-12.396 12.396-13.474 11.318-10.779 12.396-11.318 11.318-8.623 12.396-9.162 11.318-6.467 11.857-6.467 10.779-3.773 11.857-3.773 14.013-4.312h12.396c17.291 0.666 33.606 3.944 48.855 9.45 35.686 19.327 84.485 32.203 136.187 33.26-11.243-0.381-6.541-0.215-1.8-0.215 4.741 0 9.443-0.166 14.101-0.492l7.996 0.035 14.552-3.234 9.162-2.695 11.318-3.773 9.701-3.773 14.013-5.928 12.396-5.389 8.084-2.695 10.779-3.773h45.811c39.742 3.516 74.688 21.631 99.914 48.874 71.609 68.094 126.848 162.124 151.674 267.874-5.067-48.749 17.64 18.78 26.966 90.511-106.339-115.262-156.75-58.206-177.238 11.642z"  horiz-adv-x="1024" />

    
    <glyph glyph-name="es6" unicode="&#58880;" d="M63.3 836.7h896.1v-896.1H63.3zM352.1 222.20000000000005H143.8V571.5h198.1v-38.8H190.8v-108.3h138.9v-38.8H190.8V261h161.4v-38.8zM616.2 320.29999999999995c0-31.3-9.9-56.2-29.6-74.6-19.8-18.4-46.7-27.6-80.7-27.6-34.1 0-60.6 9.5-79.7 28.6s-28.6 42.9-28.6 71.5v14.3h47v-12.3c0-20.4 6.1-36.1 18.4-47 12.3-10.9 26.6-16.3 42.9-16.3 21.8 0 37.8 5.8 48 17.4 10.2 11.6 15.3 25.5 15.3 41.9 0 13.6-6.1 26.2-18.4 37.8-12.3 11.6-30 22.1-53.1 31.7-32.7 12.3-56.2 25.9-70.5 40.9-14.3 15-21.4 32.7-21.4 53.1 0 28.6 9.9 51.7 29.6 69.4 19.7 17.7 43.2 26.6 70.5 26.6 35.4 0 60.9-10.6 76.6-31.7 15.6-21.1 23.5-43.9 23.5-68.4h-47c1.3 15-2.7 28.6-12.3 40.9-9.5 12.3-23.2 18.4-40.9 18.4-16.3 0-29.3-4.4-38.8-13.3-9.5-8.9-14.3-20.8-14.3-35.7 0-12.3 3.7-22.8 11.2-31.7 7.5-8.9 26.9-19.4 58.2-31.7 29.9-12.3 53.1-26.9 69.4-43.9 16.5-17.2 24.7-36.6 24.7-58.3zM663.8 343.70000000000005c1.3 19.7 5.1 36.4 11.2 50 6.1 13.6 15.3 30.6 27.6 51.1l83.7 130.7h47l-85.8-134.8c36.8 9.5 66 8.2 87.8-4.1 21.8-12.3 36.4-26.2 43.9-41.9s11.6-32.7 12.3-51.1c0.7-18.4-2-36.4-8.2-54.1-6.1-17.7-17-33.7-32.7-48-15.7-14.3-37.5-22.1-65.4-23.5-27.9-1.4-51.8 3.7-71.5 15.3-19.8 11.6-33.4 27.9-40.9 49-7.4 21.3-10.4 41.7-9 61.4z m63.3-67.4c12.3-13 28.6-20.1 49-21.4 20.4-1.4 37.4 5.4 51.1 20.4 13.6 15 20.4 36.8 20.4 65.4s-8.5 48.3-25.5 59.2c-17 10.9-36.1 15-57.2 12.3-21.1-2.7-36.4-13-46-30.6-9.5-17.7-13.6-36.4-12.3-56.2 1.4-19.8 8.2-36.1 20.5-49.1z"  horiz-adv-x="1024" />

    
    <glyph glyph-name="tools" unicode="&#59427;" d="M160.512 543.232c47.7696 37.12 87.3984 11.52 140.288-49.7152 5.9392-6.912 13.9264 1.1776 18.4832 5.12 4.5056 3.9936 74.2912 66.816 77.7216 69.6832 3.3792 3.0208 7.4752 8.6528 2.0992 14.9504a1855.3856 1855.3856 0 0 0-38.0416 48.6912c-92.5696 121.088 253.2352 203.2128 200.1408 204.4928-27.0336 0.7168-135.4752 1.9968-151.7056 0.2048-65.6896-6.912-148.1728-68.3008-189.696-96.9216-54.3232-37.1712-74.5984-58.9824-77.9264-62.0032-15.36-13.4144-2.4576-44.3904-30.3104-68.8128-29.44-25.7536-47.8208-6.2464-64.8704-21.1968-8.448-7.4752-32.1024-25.1904-38.8608-31.0784-6.8096-5.9904-8.0384-16.0768-1.0752-24.1152 0 0 64.7168-71.4752 70.144-77.824 5.376-6.2464 20.0192-11.6736 29.0304-3.6352 9.0624 7.9872 32.3584 28.3136 36.2496 31.8976 3.9936 3.3792-2.56 44.0832 18.3296 60.2624z m292.2496-26.4704c-6.144 7.1168-13.7728 7.3216-20.3264 1.4848L359.0144 454.144a14.7968 14.7968 0 0 1-1.3824-20.48l424.6528-483.2768c9.9328-11.4176 27.136-12.5952 38.4512-2.7136l49.664 41.6256a27.648 27.648 0 0 1 2.6624 38.8096L452.7616 516.7616zM1018.9824 722.432c-3.7888 25.2928-16.896 20.0192-23.7056 9.3184-6.8096-10.8032-36.9152-56.4224-49.3056-77.1072-12.288-20.48-42.5984-60.9792-99.0208-20.992-58.7776 41.5232-38.3488 70.5024-28.1088 90.0096 10.2912 19.6096 41.8816 74.5984 46.4384 81.408 4.5568 6.912-0.768 26.9824-18.9952 18.5856-18.2784-8.3968-129.1776-52.48-144.5376-115.712-15.7184-64.3072 13.1584-121.8048-43.52-178.8928l-68.7616-71.68 69.0688-80.1792 84.6848 80.384c20.1728 20.2752 63.2832 39.9872 102.2976 31.0784 83.6096-18.8928 129.2288 12.4928 156.7232 64.4096 24.6784 46.3872 20.5824 144.0768 16.7424 169.3696zM140.2368 22.8864a27.5456 27.5456 0 0 1 0-38.8096l48.6912-47.616c10.6496-10.7008 27.5456-6.1952 38.1952 4.5056l251.2384 246.9888-76.9536 87.7568-261.1712-252.8256z"  horiz-adv-x="1024" />

    
    <glyph glyph-name="Android" unicode="&#59872;" d="M157.947546 160.506881c-45.735653 0-82.696442 37.226694-82.696442 82.696443v253.141521c0 45.469748 36.960789 82.696442 82.696442 82.696443 22.070112 0 42.810699-8.508959 58.499091-24.197351 15.688393-15.688393 24.197351-36.428979 24.197352-58.499092v-253.141521c0-22.070112-8.508959-42.810699-24.197352-58.499091-15.688393-15.422488-36.428979-24.197351-58.499091-24.197352M157.947546 556.971176c-33.504025 0-60.360426-27.122306-60.360426-60.360426v-253.141521c0-33.504025 27.122306-60.360426 60.360426-60.626331 33.504025 0 60.360426 27.122306 60.360426 60.626331v253.141521c0 33.23812-27.122306 60.360426-60.360426 60.360426M806.489743 544.473643H217.244352v22.336017c0 91.205401 49.724227 176.029083 131.091145 226.285121L316.692807 850.530252c-3.988574 6.647624-4.786289 15.422488-2.65905 23.133731 2.393145 7.711244 7.711244 14.624773 14.890678 18.347443C333.44482 894.670475 338.497014 896 343.549208 896c11.168008 0 21.538302-6.115814 26.856401-15.954298l33.23812-60.360425c34.30174 12.497533 70.464814 18.879252 107.957414 18.879252 38.024409 0 74.453389-6.381719 108.755128-19.145157L653.328486 880.045702c5.318099 9.838484 15.688393 15.954298 26.856401 15.954298 5.052194 0 10.104388-1.329525 14.624773-3.722669 7.445339-3.988574 12.763438-10.636198 14.890678-18.613348 2.393145-7.977149 1.329525-16.220203-2.65905-23.399636l-31.64269-57.701376C756.765515 742.306933 806.489743 657.483251 806.489743 566.27785v-21.804207zM645.351337 784.319917l42.278889 77.112438c2.12724 3.988574 0.797715 9.306674-3.19086 11.433914-4.254479 2.12724-9.306674 0.797715-11.433913-3.456765l-42.544793-77.910153c-35.89717 15.954298-76.048818 24.995066-118.327708 24.729161-42.278889 0-82.430538-8.774864-118.061802-24.729161l-42.544793 77.644248c-2.12724 3.988574-7.445339 5.584004-11.433913 3.456765s-5.584004-7.445339-3.456765-11.433914l42.278889-77.112438C295.95222 741.243313 239.846274 659.876396 239.846274 566.27785h544.573357c-0.265905 93.864451-56.105947 175.231368-139.068294 218.042067m-257.396001-119.125422c-12.497533 0-22.867827 10.104388-22.867826 22.867826 0 12.497533 10.104388 22.867827 22.867826 22.867827 12.497533 0 22.867827-10.370293 22.867827-22.867827 0-12.497533-10.104388-22.867827-22.867827-22.867826m248.089328 0c-12.497533 0-22.867827 10.104388-22.867827 22.867826 0 12.497533 10.104388 22.867827 22.867827 22.867827 12.497533 0 22.867827-10.370293 22.867826-22.867827 0-12.497533-10.370293-22.867827-22.867826-22.867826M410.823163-128c-45.469748 0-82.696442 36.960789-82.696443 82.696442v111.680084h-21.804206c-23.133731 0-44.937938 9.040769-61.424046 25.260971-16.486108 16.486108-25.526876 38.024409-25.260971 61.424045V567.607375H804.894313v-414.545833c0-47.862893-38.822124-86.685017-86.685017-86.685016h-21.804206v-111.680084c0-45.469748-36.960789-82.696442-82.696443-82.696442-22.070112 0-42.810699 8.508959-58.499091 24.197351-15.688393 15.688393-24.197351 36.428979-24.197351 58.499091v111.680084h-37.226695v-111.680084c-0.265905-45.469748-37.492599-82.696442-82.962347-82.696442M241.973513 153.327447c0-35.631265 28.717736-64.614905 64.614906-64.614905h43.874318V-45.303558c0-33.23812 27.122306-60.360426 60.360426-60.360425 33.504025 0 60.360426 27.122306 60.360426 60.62633v134.0161h81.632822v-134.0161c0-33.23812 27.122306-60.360426 60.360426-60.360425 33.504025 0 60.360426 27.122306 60.360426 60.360425v134.0161h44.140223c35.631265 0 64.614905 28.983641 64.614906 64.614905V546.069073H241.707608l0.265905-392.741626zM866.052454 160.772786c-45.469748 0-82.696442 36.960789-82.696443 82.696443v253.141521c0 45.735653 36.960789 82.696442 82.696443 82.696443 45.735653 0 82.696442-36.960789 82.696442-82.696443v-253.141521c0-45.735653-36.960789-82.696442-82.696442-82.696443M866.052454 556.971176c-33.504025 0-60.360426-27.122306-60.360426-60.360426v-253.141521c0-33.504025 27.122306-60.360426 60.360426-60.360426 33.504025 0 60.360426 27.122306 60.360426 60.360426v253.141521c0 33.23812-26.856401 60.360426-60.360426 60.360426M157.947546 556.971176c-33.504025 0-60.360426-27.122306-60.360426-60.360426v-253.141521c0-33.504025 27.122306-60.360426 60.360426-60.360426 33.504025 0 60.360426 27.122306 60.360426 60.360426v253.141521c0 33.23812-27.122306 60.360426-60.360426 60.360426M645.351337 784.319917l42.278889 77.112438c2.12724 3.988574 0.797715 9.040769-3.19086 11.433914-3.988574 2.12724-9.306674 0.797715-11.433913-3.456765l-42.544793-77.910153c-35.89717 15.954298-76.048818 24.995066-118.593612 24.995066-42.278889 0-82.430538-8.774864-118.061803-24.729161l-42.544793 77.644248c-2.12724 3.988574-7.445339 5.584004-11.433913 3.456765s-5.584004-7.445339-3.456765-11.433914l42.278889-77.112438c-82.962347-42.810699-139.068294-124.177616-139.068294-217.776162h544.573357c0 93.598546-55.840042 174.965464-138.802389 217.776162m-257.396001-119.125422c-12.497533 0-22.867827 10.104388-22.867826 22.867826 0 12.497533 10.104388 22.867827 22.867826 22.867827 12.497533 0 22.867827-10.370293 22.867827-22.867827 0-12.497533-10.104388-22.867827-22.867827-22.867826m248.089328 0c-12.497533 0-22.867827 10.104388-22.867827 22.867826 0 12.497533 10.104388 22.867827 22.867827 22.867827 12.497533 0 22.867827-10.370293 22.867826-22.867827 0-12.497533-10.370293-22.867827-22.867826-22.867826m-394.337056-119.657232v-392.475721c0-35.631265 28.717736-64.614905 64.614906-64.614905h43.874318v-134.016099c0-33.23812 27.122306-60.360426 60.360426-60.360426 33.504025 0 60.360426 27.122306 60.360426 60.62633v134.0161h81.632822V-45.303558c0-33.23812 27.122306-60.360426 60.360426-60.360425 33.504025 0 60.360426 27.122306 60.360426 60.360425v134.0161h44.140223c35.631265 0 64.614905 28.717736 64.614906 64.614905V545.803168l-540.318879-0.265905z m684.971177-48.926513c0 33.504025-27.122306 60.360426-60.360426 60.360426-33.504025 0-60.360426-27.122306-60.360426-60.360426v-253.141521c0-33.504025 27.122306-60.360426 60.360426-60.360426 33.504025 0 60.360426 27.122306 60.360426 60.360426v253.141521z"  horiz-adv-x="1024" />

    
    <glyph glyph-name="CSS" unicode="&#59141;" d="M512 384zM128.3 831.7l69.8-805.8 313.4-89.5L825.8 26l69.9 805.7H128.3z m580.9-669.3l-197.1-56.2-196.8 56.5L301.9 318h96.4l6.9-79.1 107.1-30.3 0.3-0.5h0.1l106.9 29.7L630.7 366H406.1l-8 99.9h241.1l8.8 101.9H280.2l-8 97.9H753l-43.8-503.3z"  horiz-adv-x="1024" />

    
    <glyph glyph-name="HTML" unicode="&#59142;" d="M116.7 832.2l71.9-806.9 322.8-89.6 323.7 89.8 72.1 806.7H116.7z m634-263.9H372l9-101.3h360.7l-27.2-303.8-203-56.3-202.7 56.3-13.9 155.4h99.4l7.1-79 110.2-29.7 0.3 0.1L622 239.7 633.5 368h-343l-26.7 299.2h495.7l-8.8-98.9z"  horiz-adv-x="1024" />

    
    <glyph glyph-name="angular" unicode="&#58939;" d="M423.68 356.48h176.384l-88.224 209.28zM511.84 895.616L29.28 725.856l73.6-629.76 408.96-223.712 409.088 223.488L994.496 725.76 511.84 895.584z m301.12-780.672H700.48l-60.576 149.376h-256.128L323.2 114.944H210.656l301.216 667.648 301.088-667.648z"  horiz-adv-x="1024" />

    
    <glyph glyph-name="Nginx" unicode="&#59082;" d="M512 896L68.48 640v-512L512-128l443.52 256V640L512 896z m256-707.84c0-30.08-27.552-55.04-65.248-55.04-26.912 0-57.632 10.88-76.832 34.56l-256 304.672v-284.16c0-30.752-24.32-55.04-54.368-55.04H312.32c-30.752 0-55.04 25.6-55.04 55.04V579.8399999999999c0 30.08 26.88 55.04 64 55.04 27.552 0 58.88-10.88 78.08-34.56l254.72-304.672V579.8399999999999c0 30.752 25.6 55.04 55.04 55.04h3.2c30.72 0 55.04-25.6 55.04-55.04v-391.68H768z"  horiz-adv-x="1024" />

    
    <glyph glyph-name="menu-fold" unicode="&#59732;" d="M112 672h800c26.5 0 48 21.5 48 48s-21.5 48-48 48H112c-26.5 0-48-21.5-48-48s21.5-48 48-48z m0-336h480c26.5 0 48 21.5 48 48s-21.5 48-48 48H112c-26.5 0-48-21.5-48-48s21.5-48 48-48z m669.3 204.4c-1.5 1.3-3.3 2-5.3 2-4.4 0-8-3.6-8-8v-300.3c0-1.9 0.7-3.8 2-5.3 2.9-3.3 8-3.7 11.3-0.8l165.1 144c0.5 0.5 1.1 1 1.5 1.5 5.8 6.7 5.1 16.8-1.5 22.6L781.3 540.4zM912 96H112c-26.5 0-48-21.5-48-48s21.5-48 48-48h800c26.5 0 48 21.5 48 48s-21.5 48-48 48z"  horiz-adv-x="1024" />

    
    <glyph glyph-name="MYSQL" unicode="&#58946;" d="M972.8 576.853333c-10.24-8.533333-20.48-17.066667-32.426667-25.6 27.306667-23.893333 42.666667-47.786667 42.666667-71.68 0-85.333333-192.853333-180.906667-471.04-180.906666S40.96 394.24 40.96 479.573333c0 23.893333 15.36 47.786667 42.666667 71.68-11.946667 8.533333-23.893333 17.066667-32.426667 25.6-32.426667-29.013333-51.2-61.44-51.2-97.28 0-122.88 228.693333-221.866667 512-221.866666s512 98.986667 512 221.866666c0 35.84-18.773333 68.266667-51.2 97.28zM512 855.04C790.186667 855.04 983.04 759.466667 983.04 674.133333S790.186667 491.52 512 491.52 40.96 587.093333 40.96 674.133333 233.813333 855.04 512 855.04M512 896C228.693333 896 0 797.013333 0 674.133333s228.693333-221.866667 512-221.866666 512 98.986667 512 221.866666S795.306667 896 512 896zM972.8 384c-10.24-8.533333-20.48-17.066667-32.426667-25.6 27.306667-23.893333 42.666667-47.786667 42.666667-71.68 0-85.333333-192.853333-180.906667-471.04-180.906667S40.96 201.386667 40.96 286.72c0 23.893333 15.36 47.786667 42.666667 71.68-11.946667 8.533333-23.893333 17.066667-32.426667 25.6-32.426667-29.013333-51.2-61.44-51.2-97.28 0-122.88 228.693333-221.866667 512-221.866667s512 98.986667 512 221.866667c0 34.133333-18.773333 68.266667-51.2 97.28zM972.8 191.146667c-10.24-8.533333-20.48-17.066667-32.426667-25.6 27.306667-23.893333 42.666667-47.786667 42.666667-71.68 0-85.333333-192.853333-180.906667-471.04-180.906667S40.96 8.533333 40.96 93.866667c0 23.893333 15.36 47.786667 42.666667 71.68-11.946667 8.533333-23.893333 17.066667-32.426667 25.6C18.773333 162.133333 0 129.706667 0 93.866667c0-122.88 228.693333-221.866667 512-221.866667s512 98.986667 512 221.866667c0 35.84-18.773333 68.266667-51.2 97.28zM836.266667 423.253333m-37.546667 0a37.546667 37.546667 0 1 1 75.093333 0 37.546667 37.546667 0 1 1-75.093333 0ZM836.266667 235.52m-37.546667 0a37.546667 37.546667 0 1 1 75.093333 0 37.546667 37.546667 0 1 1-75.093333 0ZM836.266667 47.786667m-37.546667 0a37.546667 37.546667 0 1 1 75.093333 0 37.546667 37.546667 0 1 1-75.093333 0Z"  horiz-adv-x="1024" />

    
    <glyph glyph-name="java" unicode="&#59156;" d="M503.466667 362.666667a737.706667 737.706667 0 0 0-64.426667 129.706666C398.933333 593.066667 683.946667 683.946667 568.32 858.453333 618.24 737.706667 388.266667 663.04 366.933333 562.773333c-19.2-92.586667 136.533333-200.106667 136.533334-200.106666zM509.013333 543.573333c-4.693333-59.733333 52.906667-91.733333 54.613334-135.253333 1.28-35.413333-34.133333-65.28-34.133334-65.28s64.853333 12.8 84.906667 66.986667-43.52 101.12-36.693333 149.333333S720.64 691.2 720.64 691.2s-201.386667-13.226667-211.626667-147.626667zM704 358.826667c41.813333 9.386667 76.8-17.066667 76.8-47.786667 0-68.693333-95.573333-133.973333-95.573333-133.973333s147.626667 17.493333 147.626666 130.56c0 75.093333-72.533333 93.866667-128.853333 51.2zM633.6 303.36s46.08 32.853333 58.453333 45.226667c-113.066667-23.893333-371.2-27.306667-371.2-6.4s83.2 38.826667 83.2 38.826666-184.32 2.56-184.32-51.626666 241.493333-61.013333 413.866667-26.026667zM605.44 251.733333c-107.093333-35.413333-304.213333-24.32-245.76 23.466667-28.586667 0-70.826667-22.613333-70.826667-44.8 0-43.946667 213.333333-78.08 371.2-13.653333zM386.133333 176.64c-38.826667 0-64-25.173333-64-43.093333 0-56.746667 231.68-62.293333 323.413334-4.693334l-58.453334 38.826667c-68.693333-30.72-240.64-34.56-200.96 8.96zM803.413333 84.053333c0 22.186667-25.173333 32.853333-34.133333 37.546667 52.906667-127.573333-529.493333-117.76-529.493333-42.24 0 17.066667 43.093333 33.706667 82.346666 26.026667l-33.706666 20.053333c-78.933333 12.373333-132.693333-22.186667-132.693334-50.346667 0.426667-130.56 647.68-124.16 647.68 8.96zM867.84 37.546667c-98.56-97.28-347.733333-132.693333-598.613333-72.533334 250.88-107.093333 597.333333-46.933333 598.613333 72.533334z"  horiz-adv-x="1024" />

    
    <glyph glyph-name="node-js" unicode="&#61949;" d="M512-120c-13.4 0-27 3.6-38.8 10.4l-123.4 73c-18.4 10.4-9.4 14-3.4 16 24.6 8.6 29.6 10.4 55.8 25.4 2.8 1.6 6.4 1 9.2-0.8l94.8-56.2c3.4-2 8.2-2 11.4 0l369.4 213.2c3.4 2 5.6 6 5.6 10V597.4c0 4.2-2.2 8-5.8 10.2L517.6 820.6c-3.4 2-8 2-11.4 0L137.2 607.4c-3.6-2-5.8-6-5.8-10.2v-426.2c0-4 2.2-8 5.8-9.8l101.2-58.4c55-27.4 88.6 4.8 88.6 37.4V561c0 6 4.8 10.6 10.8 10.6h46.8c5.8 0 10.8-4.6 10.8-10.6V140c0-73.2-40-115.2-109.4-115.2-21.4 0-38.2 0-85 23.2l-96.8 55.8C80.2 117.6 65.4 143.4 65.4 171.2V597.4c0 27.6 14.8 53.6 38.8 67.4L473.2 878c23.4 13.2 54.4 13.2 77.6 0l369.4-213.4c24-13.8 38.8-39.6 38.8-67.4v-426.2c0-27.6-14.8-53.4-38.8-67.4L550.8-109.6c-11.8-6.8-25.2-10.4-38.8-10.4z m298.2 420.2c0 79.8-54 101-167.4 116-114.8 15.2-126.4 23-126.4 49.8 0 22.2 9.8 51.8 94.8 51.8 75.8 0 103.8-16.4 115.4-67.6 1-4.8 5.4-8.4 10.4-8.4h48c3 0 5.8 1.2 7.8 3.4s3 5.2 2.8 8.2c-7.4 88.2-66 129.2-184.4 129.2-105.4 0-168.2-44.4-168.2-119 0-80.8 62.6-103.2 163.6-113.2 121-11.8 130.4-29.6 130.4-53.4 0-41.2-33.2-58.8-111-58.8-97.8 0-119.2 24.6-126.4 73.2-0.8 5.2-5.2 9-10.6 9h-47.8c-6 0-10.6-4.8-10.6-10.6 0-62.2 33.8-136.4 195.6-136.4 116.8 0.2 184 46.4 184 126.8z"  horiz-adv-x="1024" />

    
    <glyph glyph-name="Vue" unicode="&#59289;" d="M615.6 772.4h165.5L512 306.29999999999995 242.9 772.4H63.5L512-4.399999999999977l448.5 776.9zM781.1 772.4H615.6L512 593 408.4 772.4H242.9L512 306.29999999999995z"  horiz-adv-x="1024" />

    
    <glyph glyph-name="React" unicode="&#59290;" d="M512 384.2m-80 0a80 80 0 1 1 160 0 80 80 0 1 1-160 0ZM960.5 384.2c0 62.8-73.8 117.2-188.5 150.1 28.9 115.8 18.7 206.9-35.7 238.3-54.5 31.4-138.5-5.3-224.3-88.2-85.8 82.9-169.8 119.6-224.3 88.2-54.4-31.4-64.6-122.6-35.7-238.3C137.3 501.4 63.5 447 63.5 384.2S137.3 267 252 234.1c-28.9-115.7-18.7-206.9 35.7-238.3 13.4-7.8 28.6-11.6 45.2-11.6 39.7 0 87.8 21.8 140 64.2 13 10.6 26.1 22.6 39.1 35.2 13-12.6 26.1-24.6 39.1-35.2 52.2-42.4 100.2-64.2 140-64.2 16.6 0 31.8 3.8 45.2 11.6 54.4 31.4 64.6 122.5 35.7 238.3 114.7 32.9 188.5 87.3 188.5 150.1zM716.8 738.8c35.3-20.4 42.7-94.3 17.6-194.8-36.7 8.4-76.7 14.7-119.3 18.6-24.7 34.9-50.2 66.4-75.8 94 59.2 57.3 114.2 88.4 152 88.4 9.6 0.1 18.2-2 25.5-6.2zM637 312c-13.8-24-28.4-47-43.3-69-26.1-2-53.3-3.1-81.7-3.1-28.3 0-55.5 1.1-81.6 3.1-15 22-29.5 45.1-43.3 69-14.1 24.5-26.7 48.6-38.1 72.2 11.4 23.6 24 47.7 38.1 72.2 14.1 24.5 28.7 47.4 43.4 69.1 26.1 2 53.3 3.1 81.6 3.1 28.3 0 55.5-1.1 81.6-3.1 14.7-21.6 29.3-44.6 43.4-69 14.1-24.5 26.7-48.6 38.1-72.2-11.5-23.7-24.1-47.8-38.2-72.3z m58.8 26.4c11.2-26.6 20.4-52.1 28-76.5-24.9-5.6-51.7-10.4-80.3-14 9.3 14.5 18.4 29.3 27.3 44.6 8.8 15.4 17.1 30.7 25 45.9zM512 139.5c-17.7 19.2-35.1 40.1-52.2 62.6 17.1-0.8 34.5-1.3 52.2-1.3 17.7 0 35.1 0.5 52.2 1.3-17.1-22.5-34.5-43.4-52.2-62.6zM380.5 247.9c-28.6 3.6-55.3 8.4-80.3 14 7.6 24.4 16.8 49.9 28 76.5 7.9-15.2 16.1-30.5 25-45.9 8.9-15.2 18-30 27.3-44.6zM328.2 430c-11.2 26.6-20.4 52.1-28 76.5 24.9 5.6 51.6 10.4 80.2 14-9.2-14.4-18.4-29.2-27.2-44.6-8.8-15.4-17.1-30.7-25-45.9zM512 628.9c17.3-18.7 34.8-39.8 52.1-62.7-17.1 0.8-34.4 1.3-52.1 1.3-17.7 0-35-0.5-52.1-1.3 17.3 22.9 34.8 44 52.1 62.7z m158.7-153c-8.9 15.3-18 30.1-27.2 44.6 28.6-3.6 55.3-8.4 80.2-14-7.6-24.4-16.8-49.9-28-76.5-7.8 15.2-16.1 30.5-25 45.9zM307.2 738.8c7.2 4.2 15.8 6.2 25.6 6.2 37.8 0 92.7-31.1 151.9-88.4-25.6-27.6-51.1-59.2-75.8-94-42.5-3.9-82.6-10.2-119.3-18.6-25.1 100.6-17.6 174.5 17.6 194.8zM102.5 384.2c0 40.8 60.3 84.2 160 112.6 11.1-36 25.6-73.8 43.5-112.6-17.8-38.8-32.4-76.6-43.5-112.6-99.7 28.4-160 71.9-160 112.6z m345.8-305.5c-59.7-48.5-111.1-66.4-141.1-49.2-35.3 20.4-42.7 94.3-17.6 194.8 36.7-8.4 76.7-14.7 119.3-18.6 24.4-34.5 49.9-66.1 75.8-94.2-12.1-11.7-24.2-22.9-36.4-32.8z m268.5-49.2c-29.9-17.3-81.4 0.6-141.1 49.2-12.1 9.9-24.3 21.1-36.5 32.8 26 28.1 51.4 59.7 75.8 94.2 42.5 3.9 82.6 10.2 119.3 18.7 25.2-100.6 17.7-174.5-17.5-194.9z m44.8 242.1c-11.1 36-25.6 73.8-43.5 112.6 17.8 38.8 32.4 76.6 43.5 112.6 99.7-28.5 160-71.9 160-112.6-0.1-40.7-60.4-84.2-160-112.6z"  horiz-adv-x="1024" />

    
    <glyph glyph-name="Chrome" unicode="&#59800;" d="M955.733333 554.666667H512c-10.24 0-17.066667 6.826667-17.066667 17.066666s6.826667 17.066667 17.066667 17.066667h443.733333c10.24 0 17.066667-6.826667 17.066667-17.066667s-6.826667-17.066667-17.066667-17.066666zM341.333333 281.6c-6.826667 0-10.24 3.413333-13.653333 6.826667l-221.866667 375.466666c-6.826667 10.24-3.413333 20.48 3.413334 23.893334 10.24 6.826667 20.48 3.413333 23.893333-3.413334l221.866667-375.466666c3.413333-6.826667 3.413333-17.066667-6.826667-23.893334 0-3.413333-3.413333-3.413333-6.826667-3.413333zM477.866667-110.933333c-3.413333 0-6.826667 0-6.826667 3.413333-6.826667 3.413333-10.24 13.653333-6.826667 23.893333l170.666667 341.333334c3.413333 6.826667 13.653333 10.24 23.893333 6.826666 6.826667-3.413333 10.24-13.653333 6.826667-23.893333l-170.666667-341.333333c-3.413333-6.826667-10.24-10.24-17.066666-10.24zM512 179.2c-112.64 0-204.8 92.16-204.8 204.8s92.16 204.8 204.8 204.8 204.8-92.16 204.8-204.8-92.16-204.8-204.8-204.8z m0 375.466667c-95.573333 0-170.666667-75.093333-170.666667-170.666667s75.093333-170.666667 170.666667-170.666667 170.666667 75.093333 170.666667 170.666667-75.093333 170.666667-170.666667 170.666667zM512-128C228.693333-128 0 100.693333 0 384S228.693333 896 512 896s512-228.693333 512-512-228.693333-512-512-512z m0 989.866667C249.173333 861.866667 34.133333 646.826667 34.133333 384s215.04-477.866667 477.866667-477.866667 477.866667 215.04 477.866667 477.866667S774.826667 861.866667 512 861.866667z"  horiz-adv-x="1024" />

    
    <glyph glyph-name="ReactNative" unicode="&#62220;" d="M1024 384c0 70.4-85.333333 132.266667-217.6 168.533333 34.133333 132.266667 23.466667 238.933333-36.266667 273.066667-59.733333 36.266667-157.866667-8.533333-256-104.533333-98.133333 96-196.266667 140.8-256 104.533333-59.733333-34.133333-70.4-140.8-36.266666-273.066667C87.466667 516.266667 0 454.4 0 384c0-70.4 85.333333-132.266667 217.6-168.533333-32-134.4-21.333333-238.933333 38.4-275.2 59.733333-36.266667 157.866667 8.533333 256 104.533333 98.133333-96 196.266667-140.8 256-104.533333 59.733333 34.133333 70.4 140.8 36.266667 273.066666C938.666667 251.733333 1024 313.6 1024 384zM748.8 791.466667c42.666667-25.6 49.066667-113.066667 19.2-228.266667-42.666667 10.666667-89.6 17.066667-138.666667 21.333333-27.733333 40.533333-57.6 74.666667-87.466666 106.666667 85.333333 83.2 166.4 123.733333 206.933333 100.266667zM512 217.6c-32 0-64 2.133333-93.866667 4.266667-17.066667 25.6-34.133333 51.2-49.066666 78.933333-17.066667 27.733333-29.866667 55.466667-44.8 83.2 12.8 27.733333 27.733333 55.466667 44.8 83.2 17.066667 27.733333 32 53.333333 49.066666 78.933333 29.866667 2.133333 61.866667 4.266667 93.866667 4.266667 32 0 64-2.133333 93.866667-4.266667 17.066667-25.6 34.133333-51.2 49.066666-78.933333 17.066667-27.733333 29.866667-55.466667 44.8-83.2-12.8-27.733333-27.733333-55.466667-44.8-83.2-17.066667-27.733333-32-53.333333-49.066666-78.933333-29.866667-2.133333-61.866667-4.266667-93.866667-4.266667z m61.866667-38.4c-21.333333-27.733333-40.533333-51.2-61.866667-74.666667-21.333333 23.466667-40.533333 46.933333-61.866667 74.666667 21.333333 0 40.533333-2.133333 61.866667-2.133333s42.666667 0 61.866667 2.133333z m-206.933334 49.066667c-34.133333 4.266667-66.133333 10.666667-96 17.066666 8.533333 29.866667 21.333333 59.733333 34.133334 91.733334 8.533333-19.2 19.2-36.266667 29.866666-55.466667 8.533333-19.2 19.2-36.266667 32-53.333333z m-64 204.8c-12.8 32-23.466667 61.866667-34.133333 89.6 29.866667 6.4 61.866667 12.8 96 17.066666-10.666667-17.066667-21.333333-34.133333-32-53.333333-10.666667-17.066667-19.2-36.266667-29.866667-53.333333zM512 661.333333c21.333333-21.333333 40.533333-46.933333 61.866667-72.533333-19.2 0-40.533333 2.133333-61.866667 2.133333s-40.533333 0-61.866667-2.133333c21.333333 27.733333 42.666667 51.2 61.866667 72.533333z m179.2-381.866666c10.666667 19.2 21.333333 36.266667 29.866667 55.466666 12.8-32 23.466667-61.866667 34.133333-91.733333-29.866667-6.4-61.866667-12.8-96-17.066667 10.666667 19.2 21.333333 36.266667 32 53.333334z m0 209.066666c-10.666667 17.066667-21.333333 36.266667-32 53.333334 34.133333-4.266667 66.133333-10.666667 96-17.066667-8.533333-29.866667-21.333333-59.733333-34.133333-91.733333-8.533333 17.066667-19.2 36.266667-29.866667 55.466666zM277.333333 791.466667c40.533333 23.466667 121.6-14.933333 206.933334-98.133334-29.866667-32-57.6-68.266667-87.466667-106.666666-49.066667-4.266667-96-12.8-138.666667-21.333334-29.866667 113.066667-25.6 200.533333 19.2 226.133334zM42.666667 384c0 46.933333 74.666667 96 187.733333 128 12.8-40.533333 29.866667-85.333333 49.066667-128-21.333333-44.8-36.266667-87.466667-49.066667-130.133333C115.2 285.866667 42.666667 334.933333 42.666667 384z m234.666666-407.466667c-42.666667 23.466667-46.933333 113.066667-17.066666 228.266667 42.666667-10.666667 89.6-17.066667 136.533333-21.333333 27.733333-40.533333 57.6-76.8 87.466667-106.666667-85.333333-85.333333-164.266667-125.866667-206.933334-100.266667z m471.466667 0c-42.666667-25.6-121.6 14.933333-206.933333 98.133334 29.866667 32 59.733333 68.266667 87.466666 106.666666 49.066667 4.266667 96 12.8 136.533334 21.333334 29.866667-113.066667 23.466667-202.666667-17.066667-226.133334z m46.933333 277.333334c-12.8 42.666667-29.866667 85.333333-49.066666 130.133333 21.333333 44.8 36.266667 87.466667 49.066666 130.133333 115.2-32 187.733333-81.066667 187.733334-130.133333s-74.666667-98.133333-187.733334-130.133333zM514.133333 384m-93.866666 0a93.866667 93.866667 0 1 1 187.733333 0 93.866667 93.866667 0 1 1-187.733333 0Z"  horiz-adv-x="1024" />

    
    <glyph glyph-name="menu-unfold" unicode="&#59198;" d="M393.142857 464h548.571429c5.028571 0 9.142857 4.114286 9.142857 9.142857v64c0 5.028571-4.114286 9.142857-9.142857 9.142857H393.142857c-5.028571 0-9.142857-4.114286-9.142857-9.142857v-64c0-5.028571 4.114286-9.142857 9.142857-9.142857z m-9.142857-233.142857c0-5.028571 4.114286-9.142857 9.142857-9.142857h548.571429c5.028571 0 9.142857 4.114286 9.142857 9.142857v64c0 5.028571-4.114286 9.142857-9.142857 9.142857H393.142857c-5.028571 0-9.142857-4.114286-9.142857-9.142857v-64z m576 555.428571H64c-5.028571 0-9.142857-4.114286-9.142857-9.142857v-64c0-5.028571 4.114286-9.142857 9.142857-9.142857h896c5.028571 0 9.142857 4.114286 9.142857 9.142857v64c0 5.028571-4.114286 9.142857-9.142857 9.142857z m0-722.285714H64c-5.028571 0-9.142857-4.114286-9.142857-9.142857v-64c0-5.028571 4.114286-9.142857 9.142857-9.142857h896c5.028571 0 9.142857 4.114286 9.142857 9.142857v64c0 5.028571-4.114286 9.142857-9.142857 9.142857zM58.742857 376.114286L237.371429 235.42857100000003c6.628571-5.257143 16.457143-0.571429 16.457142 7.885715V524.685714c0 8.457143-9.714286 13.142857-16.457142 7.885715L58.742857 391.885714a9.988571 9.988571 0 0 1 0-15.771428z"  horiz-adv-x="1024" />

    
    <glyph glyph-name="team" unicode="&#59226;" d="M868.8 169.257143a344.628571 344.628571 0 0 1-98.742857 69.028571C821.828571 280.228571 854.857143 344.228571 854.857143 416c0 126.628571-105.6 230.514286-232.228572 228.571429-124.685714-1.942857-225.142857-103.542857-225.142857-228.571429 0-71.771429 33.142857-135.771429 84.8-177.714286a343.942857 343.942857 0 0 1-98.742857-69.028571C321.142857 106.742857 285.714286 24.228571 283.428571-63.771429a9.142857 9.142857 0 0 1 9.142858-9.371428h64c4.914286 0 9.028571 3.885714 9.142857 8.8 2.171429 66.285714 29.028571 128.342857 76.228571 175.428571A258.994286 258.994286 0 0 0 626.285714 187.428571c69.6 0 135.085714-27.085714 184.342857-76.342857C857.714286 64 884.571429 1.942857 886.857143-64.342857c0.114286-4.914286 4.228571-8.8 9.142857-8.8h64a9.142857 9.142857 0 0 1 9.142857 9.371428c-2.285714 88-37.714286 170.514286-100.342857 233.028572zM626.285714 269.714286c-39.085714 0-75.885714 15.2-103.428571 42.857143a144.982857 144.982857 0 0 0-42.857143 104.914285c0.342857 37.485714 15.314286 73.714286 41.485714 100.571429 27.428571 28.114286 64.114286 43.771429 103.314286 44.228571 38.742857 0.342857 76.342857-14.742857 104-41.828571 28.342857-27.771429 43.885714-64.914286 43.885714-104.457143 0-39.085714-15.2-75.771429-42.857143-103.428571A145.485714 145.485714 0 0 0 626.285714 269.714286zM340 385.828571c-1.028571 9.942857-1.6 20-1.6 30.171429 0 18.171429 1.714286 35.885714 4.914286 53.142857 0.8 4.114286-1.371429 8.342857-5.142857 10.057143-15.542857 6.971429-29.828571 16.571429-42.171429 28.685714a145.76 145.76 0 0 0-44.228571 109.028572c1.028571 36.685714 15.771429 71.542857 41.485714 97.828571 28.228571 28.914286 66.171429 44.685714 106.514286 44.228572 36.457143-0.342857 71.657143-14.4 98.285714-39.314286 9.028571-8.457143 16.8-17.828571 23.314286-27.885714 2.285714-3.542857 6.742857-5.028571 10.628571-3.657143 20.114286 6.971429 41.371429 11.885714 63.2 14.171428 6.4 0.685714 10.057143 7.542857 7.2 13.257143-37.142857 73.485714-113.028571 124.228571-200.8 125.6-126.742857 1.942857-232.342857-101.942857-232.342857-228.457143 0-71.771429 33.028571-135.771429 84.8-177.714285-36.342857-16.8-69.828571-40-98.857143-69.028572-62.628571-62.514286-98.057143-145.028571-100.342857-233.142857a9.142857 9.142857 0 0 1 9.142857-9.371429h64.114286c4.914286 0 9.028571 3.885714 9.142857 8.8 2.171429 66.285714 29.028571 128.342857 76.228571 175.428572 33.6 33.6 74.742857 56.914286 119.657143 68.228571 4.457143 1.142857 7.428571 5.371429 6.857143 9.942857z"  horiz-adv-x="1024" />

    
    <glyph glyph-name="ziyuan" unicode="&#58881;" d="M535.303939-128l-27.255707 9.326262s3.320267 138.964261-46.557528 148.939821c-33.232188 38.559373 5.341941 1635.726078 125.019138 5.312427 0 0-41.230344-20.659442-48.549689-55.854277-7.983399-34.575052-2.656214-107.724233-2.656214-107.724233zM535.303939-128l-27.255707 9.326262s3.320267 138.964261-46.557528 148.939821c-33.232188 38.559373 5.341941 1635.726078 125.019138 5.312427 0 0-41.230344-20.659442-48.549689-55.854277-7.983399-34.575052-2.656214-107.724233-2.656214-107.724233zM549.927873 6.315887S788.647725 163.253862 732.808205 489.732073C678.931331 727.109062 551.93479 804.906617 538.01918 834.818538 522.672166 856.15679 508.048232 893.329029 508.048232 893.329029l9.97556-660.26101c0-0.664053-20.659442-202.167397 31.918837-226.752132M549.927873 6.315887S788.647725 163.253862 732.808205 489.732073C678.931331 727.109062 551.93479 804.906617 538.01918 834.818538 522.672166 856.15679 508.048232 893.329029 508.048232 893.329029l9.97556-660.26101c0-0.664053-20.659442-202.167397 31.918837-226.752132M494.088352-2.316809S269.992433 150.622089 283.303017 419.903159C296.008574 689.198985 454.186116 821.522712 484.76209 845.458151c19.951118 21.279225 20.659442 29.262624 21.958035 50.541849 13.95988-29.926677 11.303666-447.498271 13.28107-496.697256 5.991238-189.491353-10.624856-365.716394-25.912843-401.619553zM494.088352-2.316809S269.992433 150.622089 283.303017 419.903159C296.008574 689.198985 454.186116 821.522712 484.76209 845.458151c19.951118 21.279225 20.659442 29.262624 21.958035 50.541849 13.95988-29.926677 11.303666-447.498271 13.28107-496.697256 5.991238-189.491353-10.624856-365.716394-25.912843-401.619553z"  horiz-adv-x="1024" />

    
    <glyph glyph-name="xiaochengxu" unicode="&#58910;" d="M0 384C0 666.74 229.26 896 512 896s512-229.26 512-512-229.26-512-512-512S0 101.25999999999999 0 384z m412.323-232.727a134.563 134.563 0 0 1 69.05 18.99c39.796 23.482 63.535 64.745 63.535 110.406V486.865c0 20.434 11.403 39.494 30.44 50.921a72.425 72.425 0 0 0 36.795 10.077c36.817 0 66.769-27.368 66.769-60.998 0-10.333-2.537-19.851-7.68-28.555-7.75-14.08-21.783-24.693-39.517-29.882l-0.489-0.14-0.465-0.186c-0.698-0.28-1.14-0.28-1.7-0.28-18.454 0-32.907-15.127-32.907-34.443s14.453-34.444 32.908-34.444c6.749 0 13.894 1.21 22.435 3.84a133.26 133.26 0 0 1 75.915 59.997 130.141 130.141 0 0 1 17.315 64.093c0 71.61-59.694 129.862-133.05 129.862-24.902 0-48.71-6.749-68.561-19.456-39.797-23.505-63.535-64.768-63.535-110.406v-205.684c0-20.433-11.427-39.494-30.44-50.92a72.401 72.401 0 0 0-36.818-10.078c-37.074 0-67.235 27.369-67.235 60.998 0 10.333 2.56 19.852 7.633 28.44 7.774 13.73 21.9 24.39 39.774 30.044l0.372 0.117 0.396 0.163c0.674 0.279 1.117 0.279 1.675 0.279 18.455 0 32.908 15.127 32.908 34.444s-14.453 34.443-32.908 34.443c-6.516 0-12.963-1.094-22.435-3.84a133.26 133.26 0 0 1-75.915-59.997 130.164 130.164 0 0 1-17.315-64.14c0-71.586 59.694-129.861 133.05-129.861z"  horiz-adv-x="1024" />

    
    <glyph glyph-name="flutter" unicode="&#59109;" d="M492.256 309.88800000000003l107.552 104.768h267.168l-236.672-236.672-138.048 131.904M157.024 380l134.368-137.568L866.976 822.816h-267.168L157.024 380zM357.632 176.67200000000003l136.288-134.272 136.384 135.584-138.048 131.904-134.624-133.216zM493.92 42.39999999999998l136.384 135.584 233.344-236h-268.672l-101.056 100.416zM493.92 42.39999999999998l127.072 42.272-42.816 41.504-84.256-83.776z"  horiz-adv-x="1024" />

    
    <glyph glyph-name="js" unicode="&#59154;" d="M943.003574 652.083904L527.963095 891.530333a31.926191 31.926191 0 0 1-31.92619 0l-415.040479-239.446429a31.926191 31.926191 0 0 1-15.963095-27.456524v-478.89286a31.926191 31.926191 0 0 1 15.963095-27.456524l118.126906-68.322048a162.823572 162.823572 0 0 1 52.358952-5.10819c88.75481 0 116.211334 34.480286 116.211334 119.403953V567.1602359999999H298.094523v-418.871621c0-30.649143-14.047524-44.058143-52.358953-44.058143a56.190096 56.190096 0 0 0-14.047524 0L128.885712 164.251711V606.110189l383.114288 220.929239 383.114288-220.929239v-441.858478l-383.114288-220.92924-114.934286 63.852382a31.926191 31.926191 0 0 1-31.926191-55.551572l130.897382-75.34581a31.926191 31.926191 0 0 1 31.92619 0l415.040479 239.44643a31.926191 31.926191 0 0 1 15.963095 27.456524V624.62738a31.926191 31.926191 0 0 1-15.963095 27.456524zM618.633477 228.742616c-88.75481 0-115.57281 40.865524-115.57281 73.430238h-70.23762c7.662286-106.633477 104.079381-127.704763 187.726001-127.704762 112.380191 0 184.533382 40.227 184.533382 127.704762 0 51.081905-35.757334 84.285143-127.704762 97.694143L575.852381 410.721902c-49.804857 6.385238-63.852381 21.071286-63.852381 45.335191 0 42.781095 51.720429 56.190096 97.05562 56.190096 72.791715 0 107.910524-31.287667 109.826095-68.960572h70.23762c-1.277048 69.599096-55.551572 123.87362-175.594049 123.873619C512 567.1602359999999 448.147619 523.7406169999999 448.147619 449.033331a102.802334 102.802334 0 0 1 97.694143-97.694143l115.57281-15.324572c56.190096-7.662286 69.599096-22.986857 69.599096-49.166333s-22.348333-58.105667-112.380191-58.105667z"  horiz-adv-x="1024" />

    


  </font>
</defs>
</svg>
